<svg xmlns="http://www.w3.org/2000/svg" viewBox="0 0 48 48" width="48" height="48">
  <path fill="#1877F2" d="M24 4C12.95 4 4 12.95 4 24c0 9.98 7.33 18.25 16.88 19.74V29.38h-5.02v-5.38h5.02v-4.1c0-4.96 2.95-7.7 7.47-7.7 2.16 0 4.43.39 4.43.39v4.87h-2.49c-2.45 0-3.21 1.52-3.21 3.1v3.44h5.48l-.88 5.38h-4.6v14.36C36.67 42.25 44 33.98 44 24c0-11.05-8.95-20-20-20z"/>
  <path fill="#FFF" d="M33.86 29.38l.88-5.38h-5.48v-3.44c0-1.58.76-3.1 3.21-3.1h2.49v-4.87s-2.27-.39-4.43-.39c-4.52 0-7.47 2.74-7.47 7.7v4.1h-5.02v5.38h5.02v14.36c1.02.16 2.06.24 3.12.24s2.1-.08 3.12-.24V29.38h4.6z"/>
</svg>
